<?xml version="1.0" standalone="no"?>
<!DOCTYPE svg PUBLIC "-//W3C//DTD SVG 20010904//EN"
 "http://www.w3.org/TR/2001/REC-SVG-20010904/DTD/svg10.dtd">
<svg version="1.0" xmlns="http://www.w3.org/2000/svg"
 width="1000.000000pt" height="1000.000000pt" viewBox="0 0 1000.000000 1000.000000"
 preserveAspectRatio="xMidYMid meet">
<metadata>
Created by potrace 1.11, written by Peter Selinger 2001-2013
</metadata>
<g transform="translate(0.000000,1000.000000) scale(0.100000,-0.100000)"
fill="#000000" stroke="none">
<path d="M4355 9707 c-3 -12 -21 -33 -40 -45 -28 -20 -37 -22 -55 -12 -16 9
-25 9 -36 -1 -8 -6 -14 -8 -14 -4 0 4 -7 2 -15 -5 -12 -10 -15 -10 -15 1 0 8
-5 6 -14 -6 -13 -18 -14 -18 -25 2 -9 17 -19 21 -47 18 -23 -2 -37 2 -41 10
-2 8 -21 19 -40 26 -36 12 -52 3 -53 -28 0 -7 -4 -13 -9 -13 -5 0 -11 -10 -15
-22 -10 -40 -63 -63 -136 -61 -79 2 -139 8 -146 16 -4 3 -18 1 -33 -5 -14 -6
-36 -10 -48 -10 -11 1 -24 -6 -27 -14 -5 -12 -9 -14 -20 -5 -10 9 -20 3 -46
-26 -17 -21 -36 -48 -41 -61 -7 -17 -15 -22 -40 -20 -21 2 -34 -3 -41 -16 -6
-10 -19 -27 -29 -37 -11 -11 -19 -23 -19 -27 0 -20 -42 -45 -82 -49 -24 -3
-62 -13 -86 -24 -23 -10 -49 -16 -56 -13 -8 3 -21 -4 -29 -16 -12 -18 -18 -19
-39 -9 -27 12 -68 -1 -68 -22 0 -6 -6 -9 -14 -6 -9 4 -20 -8 -32 -33 -10 -21
-22 -36 -26 -34 -3 2 -9 -5 -13 -15 -5 -17 -10 -19 -33 -10 -21 8 -29 7 -38
-6 -7 -9 -11 -25 -9 -35 2 -10 -4 -25 -13 -32 -13 -11 -15 -11 -9 4 3 10 2 20
-4 23 -5 4 -9 3 -8 -2 5 -28 -2 -42 -18 -36 -11 4 -14 3 -9 -5 11 -19 -5 -14
-20 6 -13 16 -14 16 -8 0 3 -10 1 -18 -5 -18 -6 0 -11 4 -11 9 0 5 -12 11 -27
14 -27 5 -71 -13 -101 -40 -7 -7 -19 -10 -26 -7 -8 3 -14 -1 -13 -8 1 -40 -3
-52 -15 -40 -14 14 -32 16 -24 3 6 -9 -31 -61 -42 -60 -17 3 -52 -15 -51 -25
1 -6 1 -20 -1 -31 l-1 -20 -8 20 c-5 11 -7 28 -5 38 2 10 -1 15 -7 11 -6 -3
-8 -9 -5 -12 3 -3 0 -12 -7 -20 -10 -13 -9 -14 2 -7 9 5 12 4 8 -2 -3 -5 -19
-8 -36 -7 -18 1 -29 -3 -28 -10 1 -6 -4 -10 -11 -8 -8 1 -12 -3 -9 -10 2 -7
13 -12 23 -10 15 2 16 1 5 -7 -10 -6 -21 -6 -33 0 -14 7 -18 6 -18 -6 0 -9 4
-13 10 -10 5 3 7 0 4 -9 -5 -12 -9 -13 -19 -3 -7 7 -10 16 -7 21 3 5 0 6 -7 2
-9 -6 -9 -11 1 -24 11 -13 11 -14 0 -8 -9 6 -12 3 -10 -10 2 -14 -2 -18 -16
-16 -10 2 -15 -1 -11 -7 3 -7 0 -8 -9 -5 -9 3 -13 10 -10 15 3 5 -2 6 -12 2
-14 -5 -15 -7 -1 -15 19 -10 11 -42 -8 -34 -15 5 -57 -27 -50 -38 3 -3 -1 -2
-7 4 -7 5 -17 10 -22 10 -6 0 -4 -5 4 -10 11 -7 12 -12 3 -21 -6 -6 -9 -19 -6
-28 4 -13 3 -13 -5 -2 -6 8 -8 20 -5 28 3 7 0 13 -7 13 -6 0 -8 -4 -5 -10 5
-9 -6 -14 -26 -12 -3 1 -5 -10 -3 -23 1 -14 -2 -25 -7 -25 -6 0 -7 -5 -3 -12
4 -7 3 -8 -5 -4 -6 4 -9 11 -7 15 3 4 -1 8 -8 8 -15 0 -11 -22 8 -46 9 -12 8
-12 -11 -1 -12 8 -20 17 -17 21 2 4 -1 11 -8 15 -7 4 -10 3 -5 -1 4 -5 -1 -17
-10 -28 -10 -11 -12 -17 -5 -13 14 9 17 -10 2 -19 -6 -4 -7 -12 -4 -18 4 -7 4
-9 -1 -5 -4 4 -14 3 -21 -3 -8 -7 -14 -6 -20 2 -4 8 -3 9 4 5 8 -5 10 -1 5 9
-4 13 -8 14 -14 4 -4 -7 -3 -22 3 -33 11 -20 10 -20 -16 -3 -29 20 -34 16 -10
-7 12 -12 12 -16 2 -16 -7 0 -19 -10 -27 -21 -10 -18 -15 -19 -22 -8 -5 8 -6
23 -3 34 4 17 3 17 -5 4 -6 -9 -9 -26 -6 -38 2 -13 0 -19 -6 -15 -15 9 -41
-17 -34 -34 4 -11 0 -13 -17 -9 -19 5 -21 4 -8 -6 13 -10 12 -15 -7 -34 -13
-12 -23 -19 -23 -15 0 3 -7 -4 -16 -16 -8 -12 -20 -20 -25 -16 -5 3 -8 0 -7
-7 3 -13 -3 -15 -40 -18 -10 0 -44 -26 -76 -56 -31 -30 -60 -55 -63 -55 -8 0
-113 -112 -113 -121 0 -4 -8 -9 -17 -11 -14 -3 -18 -12 -25 -65 -1 -7 -5 -13
-9 -13 -4 0 -14 -20 -22 -45 -12 -32 -13 -54 -6 -77 12 -42 12 -40 -10 -33
-14 4 -23 -1 -32 -17 -7 -13 -12 -24 -11 -25 6 -9 1 -23 -7 -19 -5 3 -19 -5
-33 -17 -24 -22 -24 -23 -6 -52 15 -26 15 -31 3 -38 -8 -4 -15 -16 -15 -26 0
-10 -9 -21 -20 -24 -14 -4 -18 -10 -13 -23 4 -11 3 -15 -5 -10 -6 3 -14 1 -17
-4 -4 -7 -19 -8 -36 -5 -36 8 -37 -5 -3 -42 14 -16 23 -35 21 -45 -3 -10 -1
-20 3 -23 17 -10 3 -78 -19 -96 -16 -14 -19 -22 -12 -41 6 -17 4 -30 -9 -48
-39 -56 -129 -239 -228 -460 -31 -70 -132 -348 -132 -363 0 -7 -3 -17 -7 -21
-7 -7 -41 -123 -47 -161 -2 -11 -11 -37 -19 -57 -8 -20 -13 -38 -11 -41 3 -2
0 -15 -5 -29 -5 -14 -11 -38 -14 -54 -3 -16 -10 -47 -15 -69 -6 -22 -13 -56
-16 -75 -2 -19 -7 -46 -10 -60 -3 -14 -8 -38 -12 -55 -5 -28 -7 -45 -19 -145
-2 -19 -7 -48 -11 -65 -3 -16 -7 -48 -9 -70 -2 -22 -4 -40 -5 -40 -1 0 -3 -29
-4 -66 -1 -36 -4 -69 -7 -75 -2 -5 -4 -48 -4 -96 0 -47 -2 -85 -5 -83 -3 2 -5
-21 -5 -51 0 -30 4 -54 8 -54 5 0 5 -5 2 -10 -10 -16 -11 -100 -1 -100 5 0 3
-7 -4 -15 -9 -11 -9 -15 -1 -15 7 0 10 -4 7 -9 -4 -5 -1 -22 4 -37 9 -24 9
-25 -5 -14 -13 11 -14 10 -9 -6 4 -10 12 -25 18 -33 8 -11 8 -13 0 -8 -7 4
-12 -2 -12 -18 0 -14 3 -23 7 -21 3 2 5 -21 4 -52 -1 -34 3 -60 10 -64 8 -5 8
-8 1 -8 -12 0 -12 -29 0 -49 5 -7 4 -17 -2 -23 -10 -10 -4 -51 7 -44 3 2 5
-18 5 -45 -1 -27 3 -49 8 -49 6 0 5 -7 -2 -15 -8 -10 -9 -15 -2 -15 6 0 11
-10 10 -22 -2 -48 2 -69 12 -63 13 8 8 -18 -5 -27 -6 -5 -5 -8 4 -8 7 0 11 -6
7 -15 -3 -8 0 -15 7 -15 8 0 6 -4 -3 -10 -11 -7 -11 -10 -2 -10 7 0 10 -4 7
-10 -3 -5 -1 -10 4 -10 6 0 11 -5 11 -11 0 -5 -4 -7 -10 -4 -5 3 -10 2 -10 -4
0 -5 4 -12 10 -16 5 -3 6 -13 3 -22 -4 -9 1 -21 12 -29 10 -8 14 -14 8 -14 -6
0 -10 -8 -8 -17 2 -10 4 -18 5 -18 1 0 3 -8 5 -19 2 -10 8 -23 14 -29 7 -7 7
-16 0 -30 -7 -12 -7 -17 -1 -13 5 3 13 -1 16 -10 3 -8 2 -12 -4 -9 -6 3 -10 2
-10 -4 0 -5 8 -15 18 -20 9 -6 11 -11 5 -11 -7 0 -13 -5 -13 -11 0 -5 6 -7 13
-3 7 5 6 0 -3 -11 -10 -13 -11 -16 -2 -11 9 5 13 3 11 -5 -4 -33 1 -50 14 -43
9 6 9 5 0 -8 -7 -8 -10 -18 -6 -22 4 -3 8 -15 10 -26 6 -38 8 -45 18 -52 6 -5
5 -8 -3 -8 -7 0 -10 -5 -7 -10 5 -8 12 -7 23 2 15 11 15 11 6 -2 -18 -25 -24
-50 -12 -47 7 1 12 -2 13 -8 0 -5 4 -16 8 -22 5 -7 4 -13 -2 -13 -5 0 -15 8
-20 18 -6 9 -11 12 -11 6 0 -6 11 -21 24 -33 13 -12 23 -30 21 -39 -1 -9 1
-22 6 -28 5 -6 3 -11 -5 -11 -9 0 -12 10 -11 29 1 15 -1 31 -6 34 -5 3 -8 0
-7 -8 2 -7 -3 -12 -11 -10 -12 3 -12 0 -1 -12 7 -9 9 -16 5 -16 -4 0 -2 -7 5
-15 13 -16 6 -50 -9 -40 -5 3 -12 1 -15 -4 -7 -10 20 -9 30 2 12 12 26 8 17
-5 -4 -7 -8 -16 -9 -20 -1 -5 -3 -11 -4 -15 -5 -16 3 -48 16 -67 16 -23 18
-40 5 -31 -5 3 -13 1 -16 -5 -4 -6 -1 -9 7 -8 8 2 13 -8 14 -27 0 -16 3 -37 6
-45 21 -55 26 -83 18 -104 -7 -18 -3 -28 20 -50 16 -15 27 -33 24 -40 -3 -8
-1 -17 5 -20 6 -4 8 -13 4 -21 -3 -9 1 -15 11 -15 9 0 16 -8 16 -19 0 -11 5
-23 10 -26 6 -4 19 -24 31 -46 25 -49 88 -121 100 -113 5 3 9 -2 9 -11 0 -9 5
-13 10 -10 6 3 10 2 10 -4 0 -5 -5 -11 -12 -13 -7 -3 6 -23 30 -47 23 -24 42
-47 42 -52 0 -5 8 -5 17 -2 13 5 15 2 10 -11 -4 -10 -3 -15 3 -11 9 5 15 -15
11 -38 0 -4 2 -6 6 -5 11 4 73 -35 73 -45 0 -4 -4 -6 -8 -3 -5 3 -9 -1 -9 -9
0 -8 5 -11 11 -7 6 3 20 8 31 9 15 2 17 1 6 -6 -11 -7 -9 -14 14 -35 15 -14
32 -23 37 -20 6 4 5 -3 -1 -14 -7 -14 -8 -23 -1 -27 9 -6 14 1 11 18 0 4 4 7
9 7 6 0 10 -6 9 -12 -3 -26 1 -39 11 -33 9 5 12 -1 9 -21 0 -4 11 -14 26 -24
19 -12 23 -19 13 -23 -7 -3 -3 -6 10 -6 12 -1 22 -6 22 -12 0 -5 -6 -7 -12 -3
-9 5 -8 2 1 -10 10 -12 16 -13 21 -6 8 12 22 -12 24 -40 1 -8 8 -14 17 -14 12
1 16 -5 14 -22 -1 -14 2 -21 8 -17 6 4 8 0 4 -10 -4 -12 -2 -14 10 -10 11 4
14 2 9 -5 -4 -8 0 -12 11 -13 10 0 13 -3 6 -6 -10 -3 -10 -8 1 -19 17 -16 30
-19 21 -4 -3 6 1 7 10 4 14 -6 14 -8 -1 -19 -14 -9 -14 -14 -4 -20 9 -6 11 -4
5 6 -4 8 1 5 11 -6 10 -11 25 -33 33 -48 9 -16 20 -26 28 -22 9 3 11 0 7 -6
-4 -6 0 -15 7 -20 8 -4 14 -14 14 -21 0 -7 9 -12 19 -10 10 2 15 -1 12 -7 -7
-10 58 -81 74 -81 6 0 9 -6 8 -13 -2 -6 4 -13 12 -13 8 -1 19 -2 24 -3 5 0 2
-9 -5 -18 -12 -15 -12 -16 8 -11 16 4 20 2 16 -8 -6 -17 8 -18 27 -1 8 6 6 1
-5 -12 l-20 -24 23 6 c18 4 21 3 13 -7 -18 -21 1 -27 23 -9 20 17 20 17 7 1
-11 -15 -11 -21 -1 -33 7 -8 19 -15 26 -15 8 0 14 -6 14 -14 0 -19 25 -27 41
-13 11 10 11 9 1 -4 -14 -18 -6 -52 10 -43 6 4 5 10 -3 16 -11 8 -11 9 1 5 8
-2 14 -11 14 -19 -1 -10 6 -14 20 -12 11 2 15 2 9 -2 -20 -9 -15 -27 4 -20 10
4 15 4 11 1 -9 -9 32 -55 49 -55 7 0 12 -6 11 -12 -2 -7 5 -12 15 -10 10 2 17
-3 17 -13 0 -9 4 -13 10 -10 5 3 10 1 10 -5 0 -6 5 -8 10 -5 6 3 10 1 10 -5 0
-12 31 -47 37 -42 9 7 23 1 18 -8 -3 -6 1 -10 10 -10 9 0 13 -4 10 -10 -3 -5
-2 -10 3 -10 4 0 17 -8 28 -18 10 -10 24 -20 29 -23 6 -2 9 -8 7 -12 -1 -5 2
-6 8 -2 5 3 10 3 10 -2 0 -4 12 -13 26 -20 20 -9 23 -9 15 1 -8 9 -7 13 2 13
7 0 14 -9 14 -19 1 -11 8 -26 14 -35 11 -13 15 -13 27 4 13 17 14 17 7 -4 -5
-19 -2 -23 13 -23 11 0 23 -6 25 -12 4 -10 8 -10 15 0 7 11 10 11 15 -3 4 -9
3 -13 -3 -10 -6 3 -10 1 -10 -4 0 -6 6 -11 13 -11 6 0 25 -11 41 -25 16 -13
37 -27 47 -30 11 -4 19 -11 19 -16 0 -5 9 -9 21 -9 13 0 18 -4 13 -12 -5 -8
-1 -8 12 2 10 8 16 10 12 6 -5 -5 2 -14 15 -21 12 -6 21 -18 19 -25 -2 -9 6
-7 25 5 23 15 26 15 15 2 -15 -18 -8 -37 14 -37 8 0 14 -5 14 -12 0 -6 3 -8 6
-5 4 4 1 15 -7 24 -13 16 -12 17 3 5 10 -8 20 -22 23 -32 4 -11 14 -16 30 -15
13 2 23 -1 22 -7 -1 -5 8 -14 21 -19 15 -5 21 -5 17 1 -3 6 1 7 10 4 11 -5 13
-10 5 -19 -9 -11 -7 -12 9 -8 13 3 21 1 21 -7 0 -10 3 -10 15 0 12 10 16 9 22
-6 10 -26 45 -53 60 -47 7 3 13 1 13 -4 0 -12 45 -33 71 -33 11 0 17 -4 14
-10 -4 -6 5 -10 20 -10 18 0 24 -4 19 -12 -5 -10 -4 -10 5 -2 10 9 18 6 36
-12 29 -29 55 -33 34 -6 -13 16 -12 16 6 1 11 -9 27 -14 35 -11 13 4 13 3 2
-11 -12 -14 -11 -16 7 -12 12 2 21 -1 21 -8 0 -7 4 -6 10 3 8 13 10 12 10 -3
0 -14 5 -17 21 -12 15 5 19 4 15 -4 -4 -7 1 -11 13 -11 10 0 21 -5 23 -11 2
-5 18 -11 35 -11 18 -1 30 -5 27 -10 -3 -4 0 -8 7 -8 7 0 21 -8 32 -18 11 -9
17 -12 14 -5 -4 6 -3 14 3 18 5 3 10 -2 10 -12 0 -14 2 -15 9 -5 6 11 10 10
15 -3 3 -10 12 -15 21 -11 9 3 15 -1 15 -11 0 -13 2 -14 17 -2 14 12 16 12 8
0 -6 -11 -3 -13 13 -9 12 4 20 3 17 -2 -3 -4 2 -13 10 -20 13 -11 14 -10 9 6
-3 11 -2 15 3 8 4 -6 16 -10 26 -8 10 1 17 -4 17 -13 0 -12 -3 -13 -14 -4 -11
9 -15 8 -20 -4 -3 -10 -2 -13 5 -10 5 4 17 1 25 -6 8 -6 17 -9 21 -5 3 3 1 6
-6 6 -7 0 -9 5 -6 10 8 14 35 -6 35 -26 0 -7 4 -16 10 -19 7 -4 7 3 0 19 -6
17 -6 26 0 26 6 0 10 -3 10 -7 0 -5 10 -19 21 -33 19 -23 20 -23 14 -3 -3 12
-1 24 4 28 7 3 8 0 5 -10 -4 -9 -3 -15 2 -14 30 5 37 -2 19 -21 -17 -19 -17
-19 8 -7 15 7 23 17 20 27 -4 12 -3 13 5 1 6 -8 8 -19 6 -26 -3 -6 2 -12 10
-12 8 0 13 3 11 7 -2 3 0 12 4 19 6 9 8 4 9 -13 0 -14 -5 -26 -11 -26 -6 0 -8
-3 -4 -6 7 -8 39 10 38 21 -1 5 5 10 14 11 12 2 10 -5 -7 -29 l-22 -32 27 24
c25 23 40 18 17 -5 -7 -7 -6 -11 4 -11 8 0 13 4 11 8 -3 4 2 9 10 13 8 3 17 0
21 -6 4 -7 10 -6 16 3 7 10 8 4 4 -16 -5 -20 -4 -25 3 -16 5 8 16 11 24 8 8
-3 20 0 27 6 10 10 10 8 2 -9 -9 -16 -8 -21 3 -21 8 0 12 4 9 9 -3 4 3 5 12 1
12 -4 15 -3 10 6 -6 9 -3 9 13 -1 22 -14 28 -28 11 -28 -5 0 -10 5 -10 11 0 5
-5 7 -11 3 -17 -10 12 -25 35 -18 13 4 16 3 11 -6 -5 -9 -4 -11 4 -6 9 6 9 11
1 21 -9 11 -7 12 9 8 20 -5 24 -22 8 -34 -5 -3 -2 -9 6 -12 11 -4 15 0 12 14
-2 10 1 19 7 19 5 0 8 7 5 15 -4 8 -2 17 4 20 5 4 9 3 8 -2 -4 -24 2 -34 20
-28 11 3 25 -1 34 -10 9 -8 21 -15 27 -15 7 0 10 -6 7 -13 -3 -8 7 -13 30 -14
20 -1 44 -10 54 -19 13 -12 26 -14 46 -9 15 4 44 6 63 5 42 -2 95 -2 113 0 33
4 123 -15 130 -27 5 -7 12 -11 17 -8 5 3 11 1 15 -5 4 -7 12 -7 26 0 10 6 19
8 19 4 0 -19 28 22 39 56 8 29 17 40 31 40 11 0 22 -1 24 -2 2 -2 14 6 27 17
13 11 18 13 12 5 -18 -20 -16 -35 3 -19 12 10 17 10 23 0 6 -10 10 -9 15 4 3
10 11 13 18 8 19 -11 50 -15 44 -5 -3 5 1 9 8 9 9 0 12 -7 8 -16 -5 -14 -2
-14 21 2 22 14 25 14 21 2 -5 -11 -2 -13 10 -9 9 3 13 10 10 15 -3 5 2 6 10 3
9 -3 13 -11 10 -18 -3 -6 3 -1 15 12 11 13 22 18 26 12 3 -5 1 -10 -4 -10 -6
0 -11 -5 -11 -11 0 -5 5 -7 10 -4 21 13 70 23 70 15 0 -5 -10 -11 -22 -13 -13
-2 -4 -4 19 -3 23 1 45 4 48 8 4 3 -1 5 -11 5 -9 -1 -19 5 -21 13 -4 13 -3 13
6 0 9 -12 13 -13 20 -2 7 11 9 11 14 -2 4 -9 13 -13 22 -10 8 3 12 10 9 15 -3
5 0 9 5 9 6 0 11 -4 11 -10 0 -5 5 -10 11 -10 5 0 7 6 3 13 -6 9 -4 9 7 0 16
-16 29 -17 29 -2 0 5 -5 7 -12 3 -7 -5 -8 -3 -4 5 6 9 12 9 24 -2 18 -15 46
-12 37 4 -4 5 1 6 9 3 9 -3 13 -11 9 -18 -5 -8 -3 -8 8 0 8 6 24 10 37 8 12
-2 22 0 22 4 0 4 17 7 38 6 45 -1 64 5 56 18 -4 6 3 5 15 -1 14 -8 21 -8 21
-1 0 5 5 10 11 10 5 0 7 -5 4 -10 -3 -6 -1 -10 4 -10 6 0 11 8 11 18 0 14 2
15 10 2 8 -12 10 -12 10 -1 0 10 3 11 13 2 10 -8 17 -7 27 2 10 9 11 9 6 0 -4
-7 -3 -13 2 -13 5 0 13 10 17 22 4 14 8 18 11 11 4 -9 11 -10 24 -3 13 7 19 6
24 -6 6 -17 61 -14 61 4 0 5 4 14 8 19 5 4 7 1 5 -7 -2 -12 10 -15 67 -14 81
2 165 11 215 24 19 5 55 11 80 14 90 8 176 29 218 53 57 33 110 80 128 114 8
17 23 29 34 29 10 0 22 5 25 10 3 5 15 10 26 10 10 0 19 4 19 8 0 4 21 14 46
21 25 8 43 18 41 25 -3 7 9 11 29 12 19 0 40 9 51 20 10 11 14 13 8 5 -9 -12
-7 -12 13 -2 12 7 20 16 17 21 -3 5 7 7 21 4 23 -4 25 -3 15 10 -9 11 -9 16 0
22 8 4 9 3 5 -4 -4 -7 -2 -12 4 -12 17 0 40 26 32 35 -4 5 -1 5 6 1 11 -6 11
-11 0 -24 -8 -12 -5 -11 12 3 14 11 28 25 32 30 5 6 8 5 8 -3 0 -7 5 -10 10
-7 6 4 7 11 4 17 -5 7 -2 9 8 5 18 -7 61 20 53 34 -3 5 2 6 11 2 13 -5 15 -3
9 8 -7 11 -5 11 10 -1 17 -14 18 -13 12 4 -6 16 -5 17 8 6 10 -8 15 -9 15 -1
0 6 7 11 15 11 8 0 15 5 15 11 0 5 -6 7 -12 3 -7 -4 -10 -3 -6 1 5 5 20 10 34
11 14 2 33 11 41 21 8 10 12 12 8 6 -4 -9 -1 -11 9 -7 9 3 14 10 11 14 -5 7
32 23 48 21 4 -1 10 6 13 14 4 8 12 15 20 15 8 0 14 4 14 9 0 5 10 11 23 13
13 2 22 10 21 20 -1 11 5 15 18 13 13 -3 18 0 15 9 -4 9 0 12 12 9 11 -3 21 2
25 12 3 9 10 13 16 10 5 -3 10 -1 10 5 0 6 12 15 26 20 16 7 23 14 18 22 -5 8
-1 8 12 -2 10 -8 16 -10 12 -6 -4 5 0 15 10 23 9 8 11 11 3 7 -9 -5 -12 -3 -7
5 4 6 12 9 17 6 15 -10 112 63 103 77 -3 4 3 5 12 1 10 -4 15 -2 11 3 -3 6 10
19 29 29 20 10 33 24 30 31 -3 8 0 11 8 8 7 -3 24 6 38 18 14 13 50 43 81 68
50 40 77 73 45 54 -8 -4 -10 -3 -5 2 8 9 12 10 38 13 6 0 9 8 6 15 -4 10 -1
13 8 9 8 -3 18 2 21 11 3 9 13 16 21 16 13 0 13 3 3 15 -11 13 -10 14 5 8 14
-5 17 -3 12 10 -4 11 -2 14 9 10 9 -3 14 1 14 13 0 14 2 16 9 6 7 -11 10 -10
15 3 3 9 3 22 -1 28 -4 7 2 5 12 -3 17 -14 18 -13 12 3 -4 10 -3 16 2 13 5 -3
14 0 20 8 9 11 9 15 -1 20 -7 3 -2 3 12 0 14 -4 22 -3 18 1 -4 5 0 14 10 22 9
8 11 11 3 7 -9 -4 -12 -3 -7 4 4 6 14 8 24 5 9 -3 14 -3 10 2 -4 4 16 30 45
57 29 27 52 54 52 59 0 5 10 16 23 24 12 9 20 20 17 25 -3 5 4 11 15 15 24 8
27 26 3 20 -10 -3 -4 1 12 9 17 8 26 15 22 16 -4 0 9 16 30 37 21 20 29 31 18
24 -11 -8 -2 3 20 23 27 24 33 35 20 31 -16 -4 -15 -3 3 6 23 12 25 36 3 31
-7 -1 -9 3 -6 9 5 8 10 8 18 0 17 -17 27 -13 27 10 0 11 3 18 8 16 4 -3 13 1
20 9 7 8 8 14 2 14 -5 0 -10 5 -10 10 0 6 3 9 8 9 20 -3 32 2 32 16 0 8 4 15
10 15 5 0 6 7 3 17 -4 10 -2 14 4 10 13 -8 37 18 29 31 -3 6 3 12 14 15 15 4
18 10 13 24 -3 10 -3 15 2 11 7 -7 54 53 58 75 1 7 10 18 19 25 10 7 15 19 11
30 -3 9 -2 14 2 10 5 -5 17 6 27 23 16 26 17 34 6 41 -10 7 -9 8 4 4 18 -5 43
25 31 37 -3 4 2 9 11 13 9 3 16 14 16 24 0 10 7 21 16 24 14 5 14 9 3 23 -9
10 -9 14 -2 10 7 -5 16 1 23 13 6 11 7 20 3 20 -4 0 0 5 9 11 11 6 15 16 11
26 -4 11 -3 14 5 9 7 -4 12 -1 12 9 0 9 7 23 15 31 8 8 11 22 8 31 -4 11 -3
14 5 9 11 -6 17 5 13 27 0 4 3 7 8 7 10 0 27 39 23 53 -1 4 3 7 10 7 6 0 8 3
5 7 -4 3 1 15 10 26 11 12 12 17 4 12 -10 -5 -12 -4 -7 3 4 7 14 12 22 12 8 0
14 4 14 10 0 5 21 18 46 29 29 13 81 56 143 118 54 54 113 107 132 117 40 23
58 44 59 68 0 10 12 32 28 50 55 66 73 98 89 153 24 86 39 131 45 133 4 2 8
16 8 32 0 15 7 33 15 40 14 12 14 15 -1 31 -10 11 -18 36 -19 57 -1 21 -5 44
-9 51 -4 6 -9 25 -11 41 -3 22 2 32 21 45 22 14 23 18 10 43 -7 15 -11 33 -9
39 3 7 -1 29 -7 49 -10 28 -9 38 2 52 18 22 42 92 34 99 -3 4 -1 12 5 19 9 10
6 25 -10 59 -12 25 -19 50 -16 55 3 5 1 11 -3 14 -12 7 -6 84 7 99 17 21 21
66 7 80 -8 7 -21 29 -31 47 -17 34 -22 41 -65 88 -11 12 -20 28 -20 36 0 8 -7
22 -15 30 -14 14 -14 18 1 41 9 14 20 25 25 25 15 0 10 28 -6 34 -14 5 -14 9
1 32 14 21 15 30 6 45 -17 27 -15 46 8 69 l21 21 -23 19 c-13 11 -26 19 -29
20 -12 0 -28 48 -22 68 3 13 20 24 49 32 24 7 44 16 44 20 0 3 11 12 24 19 17
9 22 19 18 33 -3 11 1 24 9 28 10 7 5 13 -19 27 -17 10 -34 28 -37 40 -3 13
-13 23 -21 23 -14 0 -14 3 -4 15 15 18 13 22 -15 27 -28 4 -46 24 -39 41 3 10
-2 18 -15 22 -25 8 -27 24 -4 40 14 10 15 16 5 28 -7 8 -10 22 -6 31 4 12 0
16 -15 16 -12 0 -21 5 -21 10 0 6 5 10 10 10 6 0 4 10 -5 23 -8 13 -12 27 -8
30 3 4 -2 14 -13 22 -15 12 -16 16 -6 23 8 5 13 13 12 17 -1 5 18 18 42 29 24
12 47 31 52 43 6 11 26 29 45 38 28 13 32 18 20 27 -11 7 -11 11 -1 15 13 5
17 32 5 34 -5 0 -21 3 -38 5 -16 2 -49 6 -73 10 -23 3 -40 9 -37 14 6 10 -30
33 -55 35 -79 8 -100 32 -55 61 l25 16 -26 26 -26 27 32 28 c18 16 29 34 26
43 -3 8 -1 14 4 14 17 0 11 20 -7 27 -10 4 -22 13 -26 20 -5 7 -12 11 -17 8
-4 -3 -20 -1 -35 5 -20 7 -25 15 -20 29 6 19 -18 36 -36 26 -5 -4 -16 12 -25
34 -9 23 -20 41 -26 41 -5 0 -7 4 -4 8 3 5 -1 20 -9 35 -8 15 -11 27 -7 27 4
1 -4 8 -18 16 -14 8 -18 13 -8 10 18 -5 18 6 -2 46 -7 15 -17 25 -21 22 -5 -3
-8 5 -6 18 1 13 -3 22 -9 21 -6 -1 -11 4 -11 12 0 8 4 12 8 9 15 -9 1 49 -15
61 -9 7 -16 17 -16 24 0 6 -8 11 -17 11 -15 0 -16 2 -3 10 11 7 11 10 2 10 -7
0 -10 5 -7 10 3 6 1 10 -5 10 -6 0 -10 8 -8 18 3 20 -20 56 -42 65 -11 4 -10
6 5 6 18 1 17 5 -10 29 -17 15 -25 23 -19 19 9 -6 11 -2 7 13 -3 12 -11 19
-18 16 -7 -2 -12 3 -11 12 0 9 -5 16 -12 14 -8 -1 -11 2 -7 8 3 6 11 8 16 5 5
-4 9 -1 9 4 0 11 -15 15 -34 12 -5 -1 -3 6 5 15 9 12 9 15 2 10 -8 -4 -13 -1
-13 8 0 22 -22 66 -33 66 -5 0 -3 -8 4 -17 13 -16 12 -17 -3 -4 -10 7 -16 17
-13 21 3 5 2 10 -2 13 -5 2 -3 2 4 1 8 -2 6 8 -5 31 -9 19 -23 35 -29 35 -7 0
-12 3 -12 8 4 21 -3 34 -26 44 -14 6 -25 16 -25 21 0 5 7 4 15 -3 13 -11 14
-10 10 2 -3 9 -18 21 -32 27 -21 9 -23 14 -13 26 10 12 9 15 -3 15 -9 0 -19 5
-23 12 -4 7 -3 8 4 4 8 -5 10 -2 6 8 -3 9 -10 13 -15 10 -5 -3 -9 4 -9 16 0
12 -3 19 -7 17 -5 -3 -17 7 -27 22 l-20 26 24 -20 23 -20 -14 23 c-8 12 -19
22 -26 22 -7 0 -13 5 -13 11 0 5 5 7 12 3 7 -4 8 -3 4 5 -4 6 -11 9 -16 6 -4
-3 -14 3 -21 12 -10 11 -10 14 -2 9 9 -5 11 -2 7 8 -3 9 -10 13 -15 10 -5 -3
-9 0 -9 7 0 6 -8 18 -17 26 -10 8 -12 12 -5 8 25 -13 11 5 -15 19 -16 8 -21
15 -13 16 10 0 9 4 -5 14 -11 8 -42 43 -69 77 -37 50 -40 55 -11 24 28 -30 32
-32 17 -10 -23 34 -73 81 -84 77 -4 -1 -5 4 -2 11 2 7 -14 27 -36 46 -22 18
-40 38 -40 43 0 6 -10 19 -22 29 -11 11 -18 19 -14 19 4 0 1 7 -8 15 -8 9 -13
22 -10 30 4 8 1 15 -6 15 -7 0 -24 9 -40 20 -15 11 -31 16 -35 12 -5 -4 -5 -1
-1 6 4 6 2 12 -3 12 -6 0 -10 3 -10 8 5 22 -25 71 -44 74 -17 2 -22 9 -21 31
1 20 -4 27 -17 27 -32 0 -33 1 -56 22 -25 23 -23 53 8 121 27 63 12 84 -65 92
-11 1 -24 3 -28 4 -5 0 -8 8 -8 17 0 10 -8 15 -22 14 -43 -4 -91 0 -85 6 3 4
1 16 -5 28 -7 11 -11 25 -10 30 2 4 -12 6 -30 3 -43 -8 -103 5 -103 22 0 14
-45 36 -45 23 0 -4 -5 1 -11 10 -5 9 -15 15 -22 13 -7 -3 -19 12 -29 36 -10
22 -22 38 -27 35 -5 -4 -12 -2 -16 4 -4 6 -11 8 -16 5 -9 -6 -14 14 -11 47 1
11 -8 20 -23 24 -32 8 -47 27 -50 64 -1 17 -8 37 -15 45 -11 14 -15 14 -36 0
-23 -15 -24 -14 -24 9 0 14 -5 37 -10 51 -8 21 -16 26 -38 25 -44 -3 -52 -1
-52 15 0 16 -46 44 -76 45 -10 0 -30 1 -44 2 -14 0 -51 -2 -82 -5 -32 -3 -58
-3 -58 1 0 16 -57 39 -90 36 -19 -1 -41 3 -48 8 -9 8 -20 8 -38 -1 -20 -9 -31
-8 -54 4 -16 8 -32 19 -35 25 -10 17 -88 48 -115 46 -20 -1 -26 4 -28 27 -2
19 -15 35 -37 50 -19 12 -40 32 -46 45 -7 12 -21 22 -31 22 -10 0 -18 7 -18
15 0 22 -32 55 -53 55 -9 0 -20 7 -23 15 -4 9 -19 15 -35 15 -16 0 -29 5 -29
10 0 6 -18 10 -39 10 -38 0 -59 19 -45 41 10 17 -9 9 -32 -12 l-23 -22 -21 36
c-25 42 -58 57 -72 33 -8 -13 -13 -15 -24 -5 -7 6 -25 9 -38 5 -16 -4 -26 -1
-29 8 -4 9 -17 13 -34 11 -15 -2 -32 0 -38 5 -5 4 -31 10 -56 14 -35 5 -49 3
-59 -8 -8 -11 -17 -13 -29 -7 -9 5 -44 7 -78 5 -61 -4 -61 -4 -93 35 l-33 39
-28 -20 c-26 -19 -30 -20 -52 -6 -16 12 -28 13 -41 6 -31 -18 -75 -27 -82 -17
-6 11 -50 4 -68 -10 -9 -8 -18 -7 -32 3 -16 12 -22 11 -43 -5 -25 -20 -61 -26
-61 -9 0 6 -5 10 -11 10 -6 0 -29 16 -50 35 -22 19 -46 35 -54 35 -15 0 -64
-47 -96 -92 -15 -20 -19 -21 -44 -10 -24 11 -31 10 -59 -12 -18 -13 -37 -21
-43 -18 -5 4 -26 32 -46 62 -21 30 -37 51 -37 46 0 -5 -7 -3 -15 4 -13 11 -19
9 -34 -9 -10 -11 -25 -21 -33 -21 -8 0 -19 -5 -24 -10 -7 -7 -15 -3 -24 14
-18 35 -39 40 -59 14 -22 -26 -35 -19 -62 35 -19 36 -23 39 -34 24 -7 -9 -26
-20 -43 -23 -27 -5 -33 -2 -54 30 -27 42 -36 44 -43 13z m-416 -322 c-3 -2
-23 -7 -45 -11 -21 -3 -46 -11 -54 -17 -13 -10 -13 -10 -2 5 8 9 23 19 35 21
33 6 71 8 66 2z m-229 -59 c0 -2 -7 -6 -15 -10 -8 -3 -15 -1 -15 4 0 6 7 10
15 10 8 0 15 -2 15 -4z m-66 -15 c3 -5 -5 -11 -19 -13 -20 -4 -23 -3 -14 8 13
16 25 18 33 5z m-1319 -481 c-3 -5 -11 -10 -16 -10 -6 0 -7 5 -4 10 3 6 11 10
16 10 6 0 7 -4 4 -10z m-521 -438 c3 -5 -1 -9 -9 -9 -8 0 -12 4 -9 9 3 4 7 8
9 8 2 0 6 -4 9 -8z m7309 -5207 c-3 -9 -8 -14 -10 -11 -3 3 -2 9 2 15 9 16 15
13 8 -4z m-8 -33 c-3 -3 -11 0 -18 7 -9 10 -8 11 6 5 10 -3 15 -9 12 -12z
m-7744 -759 c13 -16 12 -17 -3 -4 -10 7 -18 15 -18 17 0 8 8 3 21 -13z m244
-321 c-3 -3 -11 0 -18 7 -9 10 -8 11 6 5 10 -3 15 -9 12 -12z m6745 -72 c0 -5
-5 -10 -11 -10 -5 0 -7 5 -4 10 3 6 8 10 11 10 2 0 4 -4 4 -10z m-6305 -360
c3 -5 1 -10 -4 -10 -6 0 -11 5 -11 10 0 6 2 10 4 10 3 0 8 -4 11 -10z m5915
-24 c0 -2 -8 -10 -17 -17 -16 -13 -17 -12 -4 4 13 16 21 21 21 13z m-5850 -30
c0 -2 -7 -7 -16 -10 -8 -3 -12 -2 -9 4 6 10 25 14 25 6z m5590 -181 c-7 -8
-20 -15 -29 -14 -11 0 -9 3 7 9 12 5 22 15 22 21 0 7 3 9 6 6 4 -4 1 -13 -6
-22z m-5370 -6 c0 -6 -4 -7 -10 -4 -5 3 -10 11 -10 16 0 6 5 7 10 4 6 -3 10
-11 10 -16z m5040 -219 c0 -5 -2 -10 -4 -10 -3 0 -8 5 -11 10 -3 6 -1 10 4 10
6 0 11 -4 11 -10z m-4283 -236 c-3 -3 -12 -4 -19 -1 -8 3 -5 6 6 6 11 1 17 -2
13 -5z m3514 -157 c-10 -9 -11 -8 -5 6 3 10 9 15 12 12 3 -3 0 -11 -7 -18z
m-721 -191 c0 -2 -8 -10 -17 -17 -16 -13 -17 -12 -4 4 13 16 21 21 21 13z
m-295 -44 c-3 -3 -11 0 -18 7 -9 10 -8 11 6 5 10 -3 15 -9 12 -12z"/>
<path d="M2427 8923 c3 -7 6 -13 8 -13 1 0 7 6 13 13 8 10 6 13 -7 13 -11 0
-17 -6 -14 -13z"/>
<path d="M2404 8922 c3 -5 0 -13 -6 -15 -9 -4 -10 -6 -1 -6 17 -1 25 16 12 25
-7 4 -9 3 -5 -4z"/>
<path d="M2196 8774 c-8 -21 -8 -21 12 -29 13 -5 14 -3 5 6 -6 6 -9 18 -6 25
3 8 3 14 0 14 -3 0 -8 -7 -11 -16z"/>
<path d="M2146 8708 c3 -5 10 -6 15 -3 13 9 11 12 -6 12 -8 0 -12 -4 -9 -9z"/>
<path d="M1995 8610 c-3 -5 -1 -10 4 -10 6 0 11 5 11 10 0 6 -2 10 -4 10 -3 0
-8 -4 -11 -10z"/>
<path d="M1915 8541 c-3 -5 -1 -12 5 -16 6 -4 7 -11 4 -17 -4 -7 -2 -8 5 -4 8
6 9 12 2 20 -6 7 -8 16 -4 19 3 4 4 7 0 7 -3 0 -8 -4 -12 -9z"/>
<path d="M1843 8469 c3 -9 0 -22 -6 -28 -8 -8 -8 -11 0 -11 16 0 23 25 11 41
-8 11 -9 11 -5 -2z"/>
<path d="M1725 8339 c-4 -6 -5 -12 -2 -15 2 -3 7 2 10 11 7 17 1 20 -8 4z"/>
<path d="M8380 7966 c0 -2 8 -10 18 -17 15 -13 16 -12 3 4 -13 16 -21 21 -21
13z"/>
<path d="M8575 7730 c10 -11 20 -20 23 -20 3 0 -3 9 -13 20 -10 11 -20 20 -23
20 -3 0 3 -9 13 -20z"/>
<path d="M8790 7406 c0 -2 7 -7 16 -10 8 -3 12 -2 9 4 -6 10 -25 14 -25 6z"/>
<path d="M1395 2300 c-3 -5 1 -10 10 -10 9 0 13 5 10 10 -3 6 -8 10 -10 10 -2
0 -7 -4 -10 -10z"/>
<path d="M2655 1150 c3 -5 8 -10 11 -10 2 0 4 5 4 10 0 6 -5 10 -11 10 -5 0
-7 -4 -4 -10z"/>
<path d="M2931 1004 c0 -11 3 -14 6 -6 3 7 2 16 -1 19 -3 4 -6 -2 -5 -13z"/>
<path d="M3973 548 c-2 -16 1 -18 10 -9 7 7 8 14 1 21 -6 6 -10 2 -11 -12z"/>
<path d="M5780 559 c0 -4 11 -6 25 -5 14 0 25 4 25 8 0 4 -11 7 -25 6 -14 -1
-25 -5 -25 -9z"/>
<path d="M4056 502 c-3 -5 1 -9 9 -9 8 0 12 4 9 9 -3 4 -7 8 -9 8 -2 0 -6 -4
-9 -8z"/>
<path d="M4203 495 c0 -8 4 -12 9 -9 5 3 6 10 3 15 -9 13 -12 11 -12 -6z"/>
<path d="M4230 502 c0 -4 9 -13 20 -20 19 -12 20 -11 8 8 -13 20 -28 27 -28
12z"/>
</g>
</svg>
